<svg xmlns="http://www.w3.org/2000/svg" viewBox="0 0 30.12 30.11"><defs><style>.cls-1{fill:#0071bc;}</style></defs><g id="Capa_2" data-name="Capa 2"><g id="Capa_1-2" data-name="Capa 1"><path class="cls-1" d="M0,30.11l.42-1.25,2.22-6.54a.34.34,0,0,0,0-.19A14.43,14.43,0,0,1,1,18.19a14.18,14.18,0,0,1-.42-3A14.19,14.19,0,0,1,2,8.41,14.56,14.56,0,0,1,8.48,1.66,13.77,13.77,0,0,1,13.18.15,14.59,14.59,0,0,1,25.5,4a14.19,14.19,0,0,1,4.33,7.75,14.52,14.52,0,0,1-.93,8.73A14.25,14.25,0,0,1,26,24.81,14.64,14.64,0,0,1,18.47,29a14.89,14.89,0,0,1-10.2-1.44.23.23,0,0,0-.18,0L.18,30.05Zm3.72-3.64.14,0L8.36,25a.23.23,0,0,1,.24,0,12.47,12.47,0,0,0,9.73,1.6,12,12,0,0,0,6-3.5,12,12,0,0,0,3.19-10.69A11.75,11.75,0,0,0,23.86,5.7a12.23,12.23,0,0,0-8.25-3.37,12.1,12.1,0,0,0-3,.3,12.34,12.34,0,0,0-6.3,3.61A12.08,12.08,0,0,0,3,13.3a11.81,11.81,0,0,0,.12,3.56,12.2,12.2,0,0,0,2.09,4.93.21.21,0,0,1,0,.23c-.43,1.25-.85,2.5-1.27,3.75C3.88,26,3.8,26.22,3.72,26.47Z"/><path class="cls-1" d="M19.4,21.59a5.27,5.27,0,0,1-1.49-.28,19,19,0,0,1-3.09-1.19,12.72,12.72,0,0,1-3.19-2.46,19.33,19.33,0,0,1-2.54-3.3,5.93,5.93,0,0,1-.9-2.21A4,4,0,0,1,9.27,8.54,2,2,0,0,1,10.52,8l.49,0a.63.63,0,0,1,.67.35c.15.28.28.58.4.87.32.73.62,1.46.93,2.19a.73.73,0,0,1,0,.63,4.78,4.78,0,0,1-.94,1.24.5.5,0,0,0-.08.72A9.7,9.7,0,0,0,16.68,18l.38.17a.47.47,0,0,0,.58-.14c.39-.47.78-.93,1.15-1.41.23-.29.38-.38.73-.24s.92.4,1.38.62,1.07.52,1.61.78a.51.51,0,0,1,.34.52,3.86,3.86,0,0,1-.32,1.54,1.92,1.92,0,0,1-.63.73,3.83,3.83,0,0,1-1.7.84Z"/></g></g></svg>